<?xml version="1.0" standalone="no"?>
<!DOCTYPE svg PUBLIC "-//W3C//DTD SVG 20010904//EN"
 "http://www.w3.org/TR/2001/REC-SVG-20010904/DTD/svg10.dtd">
<svg version="1.0" xmlns="http://www.w3.org/2000/svg"
 width="3033.000000pt" height="3033.000000pt" viewBox="0 0 3033.000000 3033.000000"
 preserveAspectRatio="xMidYMid meet">

<g transform="translate(0.000000,3033.000000) scale(0.100000,-0.100000)"
fill="#000000" stroke="none">
<path d="M11415 25930 c-1393 -10 -1826 -21 -2010 -50 -836 -130 -1705 -464
-2375 -913 -1103 -739 -1910 -1790 -2332 -3037 -117 -346 -199 -700 -253
-1090 -45 -328 -58 -1906 -52 -6420 5 -3527 12 -4494 37 -4785 31 -361 131
-829 261 -1220 145 -435 369 -906 622 -1305 406 -642 969 -1228 1605 -1670
285 -198 747 -453 1062 -585 483 -202 975 -336 1510 -410 325 -45 1962 -58
6445 -52 3477 5 4472 12 4760 37 361 31 820 129 1218 261 469 155 993 412
1417 693 621 414 1203 996 1616 1616 281 423 536 943 693 1415 128 386 228
848 260 1210 29 319 36 1346 36 5545 0 4200 -7 5214 -36 5535 -32 361 -132
824 -260 1210 -144 432 -371 909 -622 1305 -392 619 -927 1185 -1525 1613
-281 201 -517 342 -853 507 -531 262 -1079 435 -1660 524 -253 40 -368 45
-1124 56 -913 14 -6947 21 -8440 10z m9590 -1572 c565 -163 890 -293 1235
-491 649 -373 1257 -981 1627 -1627 220 -383 361 -745 522 -1343 l51 -187 0
-5545 0 -5545 -51 -187 c-105 -389 -177 -609 -285 -864 -254 -603 -649 -1148
-1159 -1596 -563 -495 -1126 -783 -1992 -1017 l-243 -66 -5544 0 -5544 0 -189
51 c-491 132 -806 245 -1117 401 -837 419 -1555 1137 -1974 1974 -157 313
-267 620 -401 1117 l-51 187 0 5545 0 5545 51 187 c137 508 244 803 411 1137
453 905 1272 1671 2213 2069 386 163 852 291 1163 318 216 19 2016 26 6512 25
l4465 -1 300 -87z"/>
<path d="M20870 23164 c-176 -33 -398 -107 -550 -184 -437 -220 -777 -618
-929 -1085 -63 -196 -76 -286 -76 -545 0 -198 3 -238 24 -335 71 -338 228
-661 433 -895 245 -279 621 -486 1048 -577 69 -15 131 -18 330 -18 215 1 257
3 347 23 385 84 746 295 1005 586 240 271 394 592 449 941 21 129 16 437 -9
577 -50 275 -179 569 -350 797 -279 371 -694 625 -1137 697 -97 15 -527 29
-585 18z m362 -774 c263 -25 482 -131 662 -321 140 -147 228 -313 268 -508 26
-127 21 -366 -10 -483 -118 -439 -492 -750 -942 -783 -308 -22 -593 81 -810
295 -150 147 -235 291 -287 488 -23 86 -26 116 -26 267 0 151 3 181 25 266 82
304 281 545 564 681 138 66 228 88 434 107 8 0 63 -4 122 -9z"/>
<path d="M20919 21603 c-13 -16 -12 -17 4 -4 16 13 21 21 13 21 -2 0 -10 -8
-17 -17z"/>
<path d="M21380 21585 c13 -14 26 -25 28 -25 3 0 -5 11 -18 25 -13 14 -26 25
-28 25 -3 0 5 -11 18 -25z"/>
<path d="M21374 21108 l-29 -33 33 29 c30 28 37 36 29 36 -2 0 -16 -15 -33
-32z"/>
<path d="M14935 21099 c-690 -22 -1321 -155 -1960 -411 -191 -76 -608 -282
-790 -388 -1113 -655 -1977 -1632 -2488 -2815 -531 -1231 -620 -2650 -246
-3943 127 -442 326 -908 564 -1322 927 -1618 2607 -2737 4435 -2954 329 -40
848 -51 1160 -27 1238 98 2382 564 3337 1359 1049 874 1772 2072 2042 3384 79
384 114 742 114 1183 0 346 -15 559 -58 863 -215 1487 -1027 2869 -2249 3827
-946 741 -2142 1193 -3276 1240 -278 11 -361 12 -585 4z m520 -1489 c1155 -97
2111 -542 2895 -1346 621 -638 1029 -1416 1194 -2279 59 -310 70 -443 70 -820
0 -309 -2 -370 -22 -520 -121 -893 -443 -1637 -1000 -2313 -130 -157 -428
-457 -582 -584 -683 -566 -1455 -900 -2327 -1009 -805 -100 -1671 44 -2419
401 -461 220 -861 505 -1240 884 -514 514 -871 1088 -1091 1756 -210 636 -274
1306 -187 1960 90 673 336 1323 715 1887 169 252 330 445 563 678 240 239 441
405 706 583 581 388 1305 647 1990 711 63 6 131 13 150 14 83 8 475 6 585 -3z"/>
</g>
</svg>
