<?xml version="1.0" standalone="no"?>
<!DOCTYPE svg PUBLIC "-//W3C//DTD SVG 20010904//EN"
 "http://www.w3.org/TR/2001/REC-SVG-20010904/DTD/svg10.dtd">
<svg version="1.0" xmlns="http://www.w3.org/2000/svg"
 width="512.000000pt" height="512.000000pt" viewBox="0 0 512.000000 512.000000"
 preserveAspectRatio="xMidYMid meet">

<g transform="translate(0.000000,512.000000) scale(0.100000,-0.100000)"
fill="#000000" stroke="none">
<path d="M2367 5109 c-257 -29 -538 -132 -747 -272 -251 -168 -443 -387 -580
-662 -114 -229 -165 -435 -177 -707 l-6 -148 -429 0 -428 0 0 -150 0 -150 455
0 454 0 11 -42 c61 -244 206 -502 402 -717 192 -211 268 -316 366 -501 44 -84
107 -232 127 -297 l6 -23 -130 0 -131 0 0 -150 0 -150 167 -2 168 -3 7 -50 c4
-27 8 -90 10 -140 l3 -90 -177 -3 -178 -2 0 -150 0 -150 180 0 180 0 0 -275 0
-275 640 0 640 0 0 275 0 275 180 0 180 0 0 150 0 150 -177 2 -178 3 3 90 c2
50 6 113 10 140 l7 50 168 3 167 2 0 150 0 150 -131 0 -130 0 6 23 c34 113
139 330 221 454 77 120 122 176 259 328 99 111 187 229 259 348 l16 27 530 0
530 0 0 150 0 150 -469 0 -468 0 17 64 c53 190 71 494 42 681 -82 507 -363
934 -792 1202 -313 195 -716 285 -1083 242z m452 -314 c706 -138 1199 -788
1133 -1493 -12 -121 -34 -232 -68 -334 l-16 -48 -169 0 -169 0 0 103 c-1 117
-11 170 -46 242 -30 58 -102 136 -159 169 -157 93 -366 66 -494 -62 -103 -103
-121 -170 -121 -449 0 -116 -4 -223 -10 -237 -22 -59 -116 -84 -177 -46 -65
39 -63 18 -63 667 0 459 -3 599 -14 638 -47 178 -194 309 -376 338 -227 35
-445 -110 -506 -338 -10 -36 -14 -129 -14 -338 l0 -287 -192 2 -193 3 2 135
c8 692 536 1267 1243 1354 72 9 328 -3 409 -19z m-730 -832 c14 -11 36 -35 49
-53 l22 -33 0 -591 c0 -503 2 -601 16 -651 80 -309 485 -421 709 -196 108 108
125 171 125 464 l0 219 34 34 c52 52 128 44 166 -18 18 -31 20 -51 20 -275 l0
-243 235 0 c129 0 235 -3 235 -7 0 -8 -19 -30 -224 -265 -211 -243 -406 -594
-478 -862 l-12 -46 -426 0 -425 0 -29 93 c-64 207 -189 457 -319 639 -35 49
-108 138 -162 199 -151 168 -215 249 -268 338 -43 71 -112 224 -132 289 l-6
22 315 0 316 0 0 426 c0 419 0 427 22 465 42 74 151 100 217 52z m828 -2870
c-4 -27 -9 -92 -13 -145 l-7 -98 -337 0 -337 0 -7 98 c-4 53 -9 118 -13 145
l-6 47 363 0 363 0 -6 -47z m-17 -663 l0 -120 -340 0 -340 0 0 120 0 120 340
0 340 0 0 -120z"/>
</g>
</svg>
