<?xml version="1.0" standalone="no"?>
<!DOCTYPE svg PUBLIC "-//W3C//DTD SVG 20010904//EN"
 "http://www.w3.org/TR/2001/REC-SVG-20010904/DTD/svg10.dtd">
<svg version="1.0" xmlns="http://www.w3.org/2000/svg"
 width="3033.000000pt" height="3033.000000pt" viewBox="0 0 3033.000000 3033.000000"
 preserveAspectRatio="xMidYMid meet">

<g transform="translate(0.000000,3033.000000) scale(0.100000,-0.100000)"
fill="#000000" stroke="none">
<path d="M10433 26115 c-94 -47 -137 -108 -246 -342 -127 -275 -215 -494 -294
-728 -207 -617 -217 -729 -247 -2595 l-12 -775 -86 -160 c-478 -891 -663
-1428 -759 -2205 -30 -237 -39 -1018 -15 -1290 92 -1058 480 -2048 1158 -2955
210 -281 393 -488 700 -791 527 -520 1048 -911 1674 -1255 225 -123 647 -330
843 -414 l159 -68 -67 -81 c-139 -166 -265 -364 -389 -611 -206 -413 -399
-1046 -446 -1465 l-12 -105 -264 2 c-273 2 -417 13 -530 40 -220 54 -284 149
-654 980 -297 667 -428 930 -533 1073 -68 92 -397 421 -513 514 -381 304 -754
465 -1210 522 -285 36 -1589 28 -1811 -11 -258 -45 -580 -222 -814 -446 -296
-285 -449 -591 -486 -974 -16 -166 -6 -440 21 -578 90 -460 428 -910 837
-1115 110 -56 287 -116 414 -140 122 -24 147 -27 382 -47 169 -15 282 -32 354
-56 30 -9 36 -20 92 -162 33 -84 114 -298 181 -477 348 -930 504 -1246 800
-1621 106 -134 425 -452 560 -559 317 -251 733 -475 1125 -606 322 -107 589
-141 1310 -164 171 -5 397 -12 503 -16 l192 -6 0 -1007 c0 -967 1 -1008 19
-1048 27 -59 94 -128 154 -158 l51 -25 4196 0 4196 0 51 25 c60 30 127 99 154
158 18 41 19 92 19 1722 0 2540 -20 4118 -55 4395 -89 692 -385 1393 -815
1929 -50 62 -90 115 -88 116 2 2 62 26 133 55 195 79 367 159 600 279 602 309
1213 733 1710 1187 446 407 819 835 1112 1274 572 859 864 1630 969 2560 22
196 31 929 14 1183 -30 462 -99 825 -235 1232 -114 341 -220 586 -466 1071
l-168 331 -11 734 c-17 1262 -35 1647 -90 2012 -57 375 -153 668 -386 1179
-180 395 -204 432 -311 484 l-54 27 -502 -6 c-1124 -13 -1412 -63 -2027 -352
-449 -211 -677 -365 -1032 -697 l-177 -166 -158 34 c-1041 222 -1404 264
-2303 264 -1043 0 -1547 -52 -2369 -245 -106 -25 -200 -45 -208 -45 -8 0 -65
46 -126 103 -502 457 -936 723 -1472 902 -264 88 -482 136 -805 177 -146 18
-234 21 -775 25 l-610 4 -52 -26z m1201 -1540 c358 -42 607 -123 892 -292 260
-154 469 -327 942 -777 156 -149 272 -251 303 -268 46 -25 62 -28 146 -28 88
0 109 5 341 74 478 144 695 201 993 260 504 100 900 131 1564 123 1020 -13
1487 -83 2407 -361 304 -92 321 -96 410 -96 70 0 104 5 135 19 27 13 138 112
314 281 303 290 439 413 609 550 434 348 786 483 1375 526 l91 6 32 -98 c42
-132 68 -244 91 -400 53 -351 62 -582 67 -1794 3 -591 7 -1089 10 -1106 2 -18
62 -119 138 -231 187 -280 270 -431 385 -700 269 -630 414 -1413 361 -1953
-95 -968 -450 -1806 -1085 -2565 -728 -869 -1855 -1573 -3163 -1976 -270 -83
-472 -135 -882 -229 -241 -55 -368 -89 -396 -105 -52 -31 -120 -105 -145 -158
-27 -60 -26 -205 2 -267 15 -34 170 -195 632 -660 719 -722 904 -924 1060
-1158 109 -163 162 -281 282 -629 l74 -212 10 -1873 c6 -1030 11 -2070 11
-2310 l0 -438 -2868 0 -2869 0 -6 553 c-3 303 -11 604 -18 667 -22 222 -82
391 -188 530 -27 36 -107 121 -177 190 -109 106 -143 133 -220 172 -209 108
-328 121 -1419 148 -748 19 -853 32 -1125 137 -435 167 -837 496 -1019 834
-64 118 -217 490 -446 1079 -184 476 -296 718 -417 900 -83 127 -271 315 -397
399 -250 166 -437 225 -831 262 -402 37 -480 56 -505 117 -21 49 -19 70 13
101 33 33 91 44 337 62 209 15 783 6 955 -16 146 -18 208 -34 305 -80 193 -93
347 -229 432 -385 73 -134 225 -464 407 -890 188 -437 333 -738 419 -869 136
-205 387 -445 633 -604 179 -116 415 -209 637 -252 229 -45 334 -50 957 -50
518 0 597 2 692 18 264 45 444 140 643 341 213 215 283 388 360 886 74 484
157 788 305 1112 65 144 132 249 250 393 45 55 394 411 775 790 534 531 698
700 714 735 28 62 29 216 2 276 -25 54 -84 119 -135 149 -27 15 -211 65 -541
146 -735 179 -1027 265 -1383 405 -1225 484 -2247 1276 -2877 2229 -394 596
-623 1202 -715 1895 -83 620 17 1345 277 2005 110 279 204 456 420 793 69 108
134 215 144 238 17 38 19 105 29 895 17 1454 30 1856 66 2069 15 88 75 322
110 433 l16 47 61 0 c34 0 120 -7 191 -15z"/>
</g>
</svg>
