<?xml version="1.0" standalone="no"?>
<!DOCTYPE svg PUBLIC "-//W3C//DTD SVG 20010904//EN"
 "http://www.w3.org/TR/2001/REC-SVG-20010904/DTD/svg10.dtd">
<svg version="1.0" xmlns="http://www.w3.org/2000/svg"
 width="3033.000000pt" height="3033.000000pt" viewBox="0 0 3033.000000 3033.000000"
 preserveAspectRatio="xMidYMid meet">

<g transform="translate(0.000000,3033.000000) scale(0.100000,-0.100000)"
fill="#000000" stroke="none">
<path d="M7245 25900 c-556 -38 -1204 -303 -1685 -689 -137 -110 -413 -387
-524 -526 -376 -473 -611 -1041 -688 -1665 -20 -160 -16 -622 6 -785 79 -584
310 -1136 653 -1565 161 -201 494 -519 721 -688 419 -312 961 -508 1554 -563
173 -16 658 -7 798 15 241 38 600 143 825 243 370 163 664 379 1030 754 267
274 427 487 557 744 122 240 244 570 288 780 46 221 49 1162 5 1405 -21 113
-119 403 -194 575 -166 377 -375 678 -701 1006 -236 237 -405 374 -635 514
-272 166 -677 330 -945 384 -301 60 -719 84 -1065 61z m610 -1615 c327 -69
564 -180 800 -370 97 -78 158 -145 246 -265 408 -557 442 -1279 88 -1855 -164
-268 -399 -481 -679 -614 -269 -128 -588 -188 -859 -162 -304 29 -551 114
-783 270 -201 135 -304 239 -439 440 -162 241 -259 522 -288 834 -47 499 220
1076 645 1396 242 182 465 280 749 332 127 24 397 20 520 -6z"/>
<path d="M19785 19689 c-224 -10 -335 -23 -540 -64 -746 -149 -1548 -485
-2122 -890 l-108 -76 -5 263 c-3 173 -9 270 -17 283 -18 31 -65 73 -96 84 -20
8 -839 11 -2708 11 -2253 0 -2685 -2 -2712 -14 -39 -16 -82 -61 -96 -99 -15
-40 -15 -14624 0 -14664 14 -38 57 -83 96 -99 48 -21 5578 -21 5626 0 39 16
82 61 96 99 8 20 11 594 11 1870 1 2344 16 5452 30 5932 10 338 13 380 36 485
136 608 624 1065 1233 1151 289 41 672 -53 946 -232 251 -164 381 -320 548
-659 l90 -185 8 -2285 c4 -1257 8 -3132 8 -4167 1 -1304 4 -1890 12 -1910 14
-38 57 -83 96 -99 48 -21 5627 -21 5676 0 45 18 95 78 103 123 9 48 -4 6970
-16 8673 -12 1652 -20 1844 -91 2125 -238 946 -600 1684 -1149 2346 -136 163
-550 576 -715 713 -571 475 -1155 799 -1865 1036 -259 87 -578 170 -740 194
-364 54 -1112 79 -1635 55z m935 -1600 c367 -23 593 -64 895 -163 653 -216
1158 -529 1661 -1031 370 -369 552 -637 783 -1156 132 -298 192 -473 285 -829
l35 -135 10 -3410 c6 -1876 13 -3848 17 -4382 l6 -973 -1346 0 c-740 0 -1346
1 -1347 3 0 1 -6 1609 -14 3572 l-13 3570 -81 223 c-105 289 -138 368 -224
536 -84 164 -211 361 -327 506 -108 135 -365 392 -500 500 -586 468 -1319 699
-2066 651 -385 -24 -737 -113 -1085 -272 -346 -159 -558 -318 -929 -695 -207
-210 -315 -340 -392 -469 -62 -103 -273 -537 -307 -631 -131 -360 -146 -697
-156 -3679 -3 -918 -8 -2153 -11 -2742 l-6 -1073 -1319 0 -1319 0 0 5845 0
5845 1220 0 1220 0 0 -825 c0 -679 2 -831 14 -858 16 -39 61 -82 99 -96 39
-15 1085 -15 1124 0 46 17 69 44 211 254 294 433 502 681 772 918 476 418
1000 704 1613 877 432 123 859 157 1477 119z"/>
<path d="M4765 19286 c-37 -17 -80 -62 -94 -99 -15 -40 -15 -14624 0 -14664
14 -38 57 -83 96 -99 48 -21 5588 -21 5636 0 39 16 82 61 96 99 8 20 11 2196
11 7332 0 5136 -3 7312 -11 7332 -14 38 -57 83 -96 99 -48 20 -5593 20 -5638
0z m4145 -7431 l0 -5845 -1325 0 -1325 0 0 5845 0 5845 1325 0 1325 0 0 -5845z"/>
</g>
</svg>
