<?xml version="1.0" standalone="no"?>
<!DOCTYPE svg PUBLIC "-//W3C//DTD SVG 20010904//EN"
 "http://www.w3.org/TR/2001/REC-SVG-20010904/DTD/svg10.dtd">
<svg version="1.0" xmlns="http://www.w3.org/2000/svg"
 width="3033.000000pt" height="3033.000000pt" viewBox="0 0 3033.000000 3033.000000"
 preserveAspectRatio="xMidYMid meet">

<g transform="translate(0.000000,3033.000000) scale(0.100000,-0.100000)"
fill="#000000" stroke="none">
<path d="M15075 25823 c-16 -2 -59 -13 -95 -25 -116 -37 -2982 -1463 -6640
-3303 -3085 -1552 -3477 -1758 -3613 -1904 -59 -63 -123 -174 -142 -246 -21
-84 -30 -299 -16 -422 12 -117 34 -178 96 -275 128 -196 188 -231 2060 -1176
944 -476 1299 -658 1553 -794 78 -42 92 -53 80 -63 -26 -26 -960 -506 -1788
-920 -876 -438 -1456 -740 -1652 -862 -145 -90 -232 -181 -300 -318 -44 -87
-52 -145 -52 -350 0 -205 8 -263 52 -350 68 -137 155 -228 300 -318 197 -122
774 -423 1652 -862 829 -415 1761 -894 1788 -920 12 -10 -2 -21 -80 -63 -255
-137 -630 -329 -1573 -804 -1855 -936 -1912 -969 -2040 -1166 -62 -97 -84
-158 -96 -275 -14 -123 -5 -338 16 -422 22 -83 98 -206 171 -274 172 -161 704
-434 6224 -3198 3353 -1679 3711 -1854 3996 -1949 100 -34 112 -35 292 -41
l187 -6 4190 2096 c2305 1153 4370 2189 4590 2302 1190 614 1502 813 1569
1003 11 31 16 111 18 329 l3 288 -27 57 c-35 75 -107 175 -161 225 -138 127
-407 272 -1789 964 -928 464 -1732 875 -1791 915 -17 11 -13 15 35 42 132 75
600 313 1548 790 1662 835 1858 942 2026 1107 119 118 139 180 155 479 17 320
6 373 -97 517 -97 134 -179 191 -599 419 -33 18 -611 310 -1285 650 -1120 564
-1606 812 -1748 892 -48 27 -52 31 -35 43 45 31 643 336 1753 895 1369 690
1538 779 1735 920 145 104 225 206 253 322 13 53 32 350 32 513 0 103 -2 113
-29 161 -105 182 -467 403 -1676 1023 -941 483 -6888 3451 -7585 3786 -977
469 -1291 591 -1465 568z m293 -1867 c868 -408 5787 -2861 7379 -3679 294
-151 370 -194 360 -203 -26 -26 -1355 -696 -4567 -2304 l-3336 -1668 -3309
1657 c-1821 911 -3425 1716 -3565 1788 -140 72 -410 209 -600 306 -398 202
-430 220 -430 229 0 14 910 477 3240 1646 1320 662 4049 2021 4260 2120 36 17
135 64 220 106 85 41 163 75 173 76 10 0 88 -33 175 -74z m6020 -7906 c1291
-646 1724 -868 1726 -884 2 -16 -1019 -532 -4509 -2278 l-3400 -1701 -2900
1451 c-3450 1726 -4876 2445 -4988 2513 l-28 17 83 45 c426 230 2218 1128
2743 1374 154 72 161 74 195 62 104 -37 1001 -477 2690 -1320 1192 -595 1544
-767 1756 -857 220 -95 258 -104 420 -110 285 -9 209 -43 3244 1474 927 464
1691 843 1698 843 7 1 578 -282 1270 -629z m-40 -4895 c1209 -606 1735 -874
1759 -898 10 -10 -68 -54 -375 -212 -546 -281 -2314 -1169 -5114 -2571 l-2408
-1204 -3007 1505 c-4177 2089 -4907 2458 -4900 2478 6 18 523 283 1537 790
986 493 1407 697 1440 697 44 0 542 -243 2605 -1269 825 -410 1579 -783 1675
-827 378 -176 496 -210 684 -201 239 11 260 21 2946 1364 1059 529 1926 962
1928 962 2 1 555 -276 1230 -614z"/>
</g>
</svg>
