<?xml version="1.0" standalone="no"?>
<!DOCTYPE svg PUBLIC "-//W3C//DTD SVG 20010904//EN"
 "http://www.w3.org/TR/2001/REC-SVG-20010904/DTD/svg10.dtd">
<svg version="1.0" xmlns="http://www.w3.org/2000/svg"
 width="3033.000000pt" height="3033.000000pt" viewBox="0 0 3033.000000 3033.000000"
 preserveAspectRatio="xMidYMid meet">

<g transform="translate(0.000000,3033.000000) scale(0.100000,-0.100000)"
fill="#000000" stroke="none">
<path d="M24045 24344 c-49 -7 -121 -23 -160 -35 -188 -57 -1813 -670 -5185
-1957 -663 -253 -2357 -900 -3765 -1437 -7302 -2787 -9553 -3653 -9750 -3753
-312 -157 -635 -458 -745 -694 -16 -35 -41 -103 -56 -153 -24 -80 -28 -111
-32 -279 -5 -212 4 -291 48 -421 94 -278 412 -609 763 -794 165 -87 906 -312
3011 -916 605 -173 1101 -317 1104 -319 2 -3 227 -643 498 -1423 1010 -2896
1360 -3876 1604 -4484 124 -309 189 -408 420 -639 153 -154 244 -226 418 -332
90 -56 260 -130 349 -152 130 -34 515 -46 794 -26 161 12 264 39 424 111 336
151 501 285 1685 1369 564 516 1075 978 1160 1050 l45 38 205 -161 c113 -89
752 -598 1420 -1132 1387 -1110 1756 -1400 1890 -1490 233 -156 537 -262 851
-296 153 -17 468 -6 591 20 290 62 517 191 759 431 215 213 395 484 483 729
39 108 227 996 752 3546 666 3236 1672 8202 1984 9790 302 1542 360 1890 360
2180 0 524 -130 895 -415 1180 -240 241 -566 399 -928 450 -130 19 -459 18
-582 -1z m362 -1581 c4 -9 -8 -98 -26 -197 -248 -1360 -2310 -11512 -2881
-14181 -146 -680 -147 -687 -184 -748 -39 -64 -54 -65 -159 -11 -248 126 -361
214 -2802 2178 -2045 1646 -3044 2457 -3260 2649 l-50 44 70 79 c300 335 1833
1977 3740 4004 1010 1074 2063 2202 2488 2665 203 222 237 301 237 570 0 257
-57 408 -207 545 -32 29 -94 77 -138 105 -227 148 -410 189 -575 129 -253 -91
-1200 -570 -7500 -3789 -1004 -513 -2165 -1107 -2580 -1320 -415 -213 -762
-387 -770 -387 -29 1 -3197 907 -3209 918 -2 2 16 12 41 23 60 25 1198 463
1693 651 433 164 2840 1083 4205 1605 465 178 1252 478 1750 668 498 190 1335
509 1860 710 1098 419 4589 1751 5880 2242 481 183 1179 449 1550 590 371 142
686 261 700 265 14 5 47 9 73 9 36 1 49 -3 54 -16z m-7368 -5782 c-8 -10 -217
-234 -465 -498 -1248 -1325 -3148 -3362 -3340 -3582 -69 -77 -76 -90 -108
-190 -78 -241 -251 -906 -565 -2164 l-216 -869 -43 119 c-367 1003 -792 2211
-1307 3720 l-114 332 182 95 c325 168 2045 1045 4847 2472 388 197 802 409
920 470 118 61 217 112 219 113 2 0 -3 -8 -10 -18z m-2331 -6280 c421 -337
702 -569 702 -581 0 -4 -22 -28 -49 -52 -27 -23 -145 -133 -263 -243 -458
-429 -1368 -1258 -1375 -1252 -4 4 48 217 418 1729 148 607 175 705 188 698 9
-5 179 -139 379 -299z"/>
</g>
</svg>
